{"title":"Ba Pass 2013 Hindi DVDSCR-Rip ESubs-NYADAF","uid":8905960,"size":685313776,"categoryP":"video","categoryS":"movies","magnet":"?xt=urn:btih:7841683c88ba2363d745ac860aaba9ea64b8e08a&amp;dn=Ba+Pass+2013+Hindi+DVDSCR-Rip+ESubs-NYADAF&amp;tr=udp%3A%2F%2Ftracker.openbittorrent.com%3A80&amp;tr=udp%3A%2F%2Fopen.demonii.com%3A1337&amp;tr=udp%3A%2F%2Ftracker.coppersurfer.tk%3A6969&amp;tr=udp%3A%2F%2Fexodus.desync.com%3A6969","seeders":8,"leechers":1,"uploader":"HeroMaster","files":-1,"time":1378905471,"description":":::::: NYADAF PRESENTS ::::::\n\n\n:::: Ba Pass 2013 Hindi DVDSCR-Rip ESubs-NYADAF ::::\n\n\n::Information::\n\n\nFormat : AVI\nFormat/Info : Audio Video Interleave\nFile size : 606 MiB\nDuration : 1h 34mn\nOverall bit rate : 896 Kbps\nWriting library : VirtualDub-MPEG2 build 24586/release\n\nVideo\nID : 0\nFormat : MPEG-4 Visual\nFormat profile : Advanced Simple@L5\nFormat settings, BVOP : 2\nFormat settings, QPel : No\nFormat settings, GMC : No warppoints\nFormat settings, Matrix : Default (H.263)\nMuxing mode : Packed bitstream\nCodec ID : XVID\nCodec ID/Hint : XviD\nDuration : 1h 34mn\nBit rate : 692 Kbps\nWidth : 640 pixels\nHeight : 272 pixels\nDisplay aspect ratio : 2.35:1\nFrame rate : 29.970 fps\nColor space : YUV\nChroma subsampling : 4:2:0\nBit depth : 8 bits\nScan type : Progressive\nCompression mode : Lossy\nBits/(Pixel*Frame) : 0.133\nStream size : 468 MiB (77%)\nWriting library : XviD 1.0.3 (UTC 2004-12-20)\n\nAudio\nID : 1\nFormat : AC-3\nFormat/Info : Audio Coding 3\nMode extension : CM (complete main)\nFormat settings, Endianness : Big\nCodec ID : 2000\nDuration : 1h 34mn\nBit rate mode : Constant\nBit rate : 192 Kbps\nChannel(s) : 2 channels\nChannel positions : Front: L R\nSampling rate : 48.0 KHz\nBit depth : 16 bits\nCompression mode : Lossy\nStream size : 130 MiB (21%)\nAlignment : Aligned on interleaves\nInterleave, duration : 33 ms (1.00 video frame)\nInterleave, preload duration : 512 ms\n\n\nSource: Team Telly \n\n\nEncoder: NYADAF (Thanks)\n\n\nDistributor: ETVicky (Thx buddy)\n\n\nSample also included, Enjoy the Exclusive release\n\n\n..First On NET ...\n\n\n&quot;Bhai Logo ab Maze lo Sexiest movie of year ka&quot;\n\n\n::Other Notes::\n\n\nBayimg not working , so forget the damn bayimg poster and get the real \n\nthing from the Description :)\n\n\n::IMDB::\n\n &lt;a href=&quot;\nhttp://www.imdb.com/title/tt2408040/&quot; rel=&quot;nofollow&quot; target=&quot;_NEW&quot;&gt;\nhttp://www.imdb.com/title/tt2408040/&lt;/a&gt;\n\n\n::Poster::\n\n &lt;a href=&quot;\nhttp://i.imgur.com/VlZYNVC.jpg&quot; rel=&quot;nofollow&quot; target=&quot;_NEW&quot;&gt;\nhttp://i.imgur.com/VlZYNVC.jpg&lt;/a&gt;\n\n\n::Screenshots::\n\n &lt;a href=&quot;\nhttp://i.imgur.com/EkjWgHc.png&quot; rel=&quot;nofollow&quot; target=&quot;_NEW&quot;&gt;\nhttp://i.imgur.com/EkjWgHc.png&lt;/a&gt;\n\n &lt;a href=&quot;\nhttp://i.imgur.com/vzG7DFu.png&quot; rel=&quot;nofollow&quot; target=&quot;_NEW&quot;&gt;\nhttp://i.imgur.com/vzG7DFu.png&lt;/a&gt;\n\n &lt;a href=&quot;\nhttp://i.imgur.com/YPDCUiY.png&quot; rel=&quot;nofollow&quot; target=&quot;_NEW&quot;&gt;\nhttp://i.imgur.com/YPDCUiY.png&lt;/a&gt;\n\n\nSEED AND ENJOY!","torrent":{"xt":"urn:btih:7841683c88ba2363d745ac860aaba9ea64b8e08a","amp;dn":"Ba+Pass+2013+Hindi+DVDSCR-Rip+ESubs-NYADAF","amp;tr":["udp%3A%2F%2Ftracker.openbittorrent.com%3A80","udp%3A%2F%2Fopen.demonii.com%3A1337","udp%3A%2F%2Ftracker.coppersurfer.tk%3A6969","udp%3A%2F%2Fexodus.desync.com%3A6969"],"infoHash":"7841683c88ba2363d745ac860aaba9ea64b8e08a","infoHashBuffer":{"type":"Buffer","data":[120,65,104,60,136,186,35,99,215,69,172,134,10,171,169,234,100,184,224,138]},"announce":[],"urlList":[]}}